<svg height="496pt" viewBox="-36 0 496 496" width="496pt" xmlns="http://www.w3.org/2000/svg"><path d="m176 144h-16l-8 80 16 16 16-16zm0 0" fill="#f0bc5e"/><path d="m170.742188 280c-10.335938 0-18.742188 8.40625-18.742188 18.742188v157.257812h16v-157.257812c0-2.367188 3.464844-3.558594 4.910156-1.6875l51.089844 65.6875v61.257812h16v-66.742188l-54.457031-70.019531c-3.574219-4.597656-8.96875-7.238281-14.800781-7.238281zm0 0"/><path d="m320 88.871094v-16.871094h-16v18.230469l-91.007812 30.335937c1.910156-5.175781 3.007812-10.734375 3.007812-16.566406v-24c0-26.472656-21.527344-48-48-48s-48 21.527344-48 48v24c0 5.832031 1.097656 11.390625 3.007812 16.566406l-94.351562-31.445312c-2.230469-.746094-4.542969-1.121094-6.886719-1.121094-12 0-21.769531 9.769531-21.769531 21.769531v2.542969c0 7.503906 3.96875 14.609375 10.359375 18.535156l93.640625 57.625v267.527344h16v-276.472656l-101.257812-62.3125c-1.695313-1.039063-2.742188-2.917969-2.742188-4.902344v-2.542969c0-3.800781 3.992188-6.664062 7.59375-5.472656l116.871094 38.960937c7.800781 5.484376 17.289062 8.742188 27.535156 8.742188s19.734375-3.257812 27.535156-8.742188l116.871094-38.960937c3.601562-1.207031 7.59375 1.671875 7.59375 5.472656v2.542969c0 1.992188-1.046875 3.863281-2.742188 4.910156l-101.257812 62.304688v78.992187l51.664062 73.800781c2.832032 4.054688 4.335938 8.816407 4.335938 13.769532v77.910156h16v-77.910156c0-8.25-2.496094-16.1875-7.230469-22.9375l-48.769531-69.671875v-65.007813l72-44.304687v15.832031h-16v16h48v-16h-16v-25.6875l5.640625-3.472656c6.390625-3.929688 10.359375-11.023438 10.359375-18.527344v-2.542969c0-9.992187-6.808594-18.34375-16-20.898437zm-184 15.128906v-24c0-17.648438 14.351562-32 32-32s32 14.351562 32 32v24c0 17.648438-14.351562 32-32 32s-32-14.351562-32-32zm0 0"/><path d="m376 16h-40v16h24v8c0 4.40625-3.59375 8-8 8h-16v16h16c13.230469 0 24-10.769531 24-24zm0 0"/><path d="m272 64h16v-16h-16c-4.40625 0-8-3.59375-8-8v-8h24v-16h-40v24c0 13.230469 10.769531 24 24 24zm0 0"/><path d="m392 96h16v16h-16zm0 0"/><path d="m376 112h16v16h-16zm0 0"/><path d="m392 128h16v16h-16zm0 0"/><path d="m408 112h16v16h-16zm0 0"/><path d="m32 200h16v16h-16zm0 0"/><path d="m16 216h16v16h-16zm0 0"/><path d="m32 232h16v16h-16zm0 0"/><path d="m48 216h16v16h-16zm0 0"/><path d="m64 8h16v16h-16zm0 0"/><path d="m48 24h16v16h-16zm0 0"/><path d="m64 40h16v16h-16zm0 0"/><path d="m80 24h16v16h-16zm0 0"/><g fill="#f0bc5e"><path d="m312 80c-17.648438 0-32-14.351562-32-32v-48h64v48c0 17.648438-14.351562 32-32 32zm0 0"/><path d="m328 496h-256v-48h128v-32h128zm0 0"/></g></svg>